# xmcd
#
# Track frame offsets: 
#        150
#        26673
#        49258
#        68724
#        83929
#        104022
#        114870
#        137451
#        158480
#
# Disc length: 2475 seconds
#
# Revision: 2
# Processed by: cddbd v1.5.2PL0 Copyright (c) Steve Scherf et al.
# Submitted via: ExactAudioCopyFreeDBPlugin 1.0
#
DISCID=6d09a909
DTITLE=Jason McNiff - Off The Rails
DYEAR=2000
DGENRE=Country
TTITLE0=Off The Rails
TTITLE1=Summertime In Soho
TTITLE2=An Old Country Tune
TTITLE3=Through With Love
TTITLE4=Woody's Annie Hall
TTITLE5=Hang on to Your Woman
TTITLE6=Southbound Train
TTITLE7=Blues Run The Game
TTITLE8=New York
EXTD=
EXTT0=
EXTT1=
EXTT2=
EXTT3=
EXTT4=
EXTT5=
EXTT6=
EXTT7=
EXTT8=
PLAYORDER=
